<?xml version="1.0" encoding="utf-8"?>
<!-- Generator: Adobe Illustrator 22.0.0, SVG Export Plug-In . SVG Version: 6.00 Build 0)  -->
<svg version="1.1" id="Layer_1" xmlns="http://www.w3.org/2000/svg" xmlns:xlink="http://www.w3.org/1999/xlink" x="0px" y="0px"
	 viewBox="0 0 792 612" style="enable-background:new 0 0 792 612;" xml:space="preserve">
<style type="text/css">
	.st0{fill:none;}
</style>
<g>
	<path d="M-295.1,667.9c-101.7,0-185.6,77.8-195.3,177.1c1.9-0.4,3.7-0.6,5.6-0.6c17.2,0,30,14.7,46.2,33.3
		c10.8,12.4,23.3,26.7,39.3,39.3l70.2-110.8c3.5-5.5,5.4-11.9,5.4-18.5v-87.1h-10.1c-2.3,0-4.1-1.9-4.1-4.1v-1
		c0-2.3,1.9-4.1,4.1-4.1h46.2h3.9h29.8c2.3,0,4.1,1.9,4.1,4.1v1c0,2.3-1.9,4.1-4.1,4.1h-10.1v87.1c0,6.6,1.9,12.9,5.4,18.5
		l62.4,98.5c17.1-19.6,29.4-42.3,40-62c12.2-22.5,21-38.8,33.8-44.6c3.8-1.7,7.6-2.6,11.4-2.8C-139.4,719.9-212.2,667.9-295.1,667.9
		z M-344,764.1l-2.7,0.2c-2.2,0.1-2.7,0.8-2.9,2.4c-0.3,1.9-0.4,3.8-0.5,5.9c-0.1,0.9-0.1,1.8-0.2,2.7c-0.1,1.4-0.2,2.7-0.3,4.1
		c-0.2,3-0.4,6.2-0.8,9.3c-1.1,8.8-6,15.2-14.4,19.2c-4.4,2.1-9.5,3.3-16,3.9c-0.9,0.1-1.9,0.1-2.8,0.2c0,2.1,0,4.1,0,6.2
		c0,5.7,0.1,11.6,0.2,17.4c0.1,3,1,4.2,4,5c0.5,0.1,1,0.2,1.5,0.3c1.1,0.1,2.2,0.2,3.3,0.3l1.4,0.1l2.6,0.2v7.7h-44.1v-7.9l2.7-0.1
		c0.3,0,0.5,0,0.7,0c0.3,0,0.6,0,0.8,0c0.6-0.1,1.1-0.1,1.7-0.2c1.3-0.1,2.5-0.3,3.6-0.5c2.6-0.7,3.1-2.1,3.2-3.5
		c0-0.4,0.1-0.8,0.1-1.2c0.2-1.7,0.3-3.2,0.3-4.8c0-5.2,0-10.4,0-15.5c0-1.2,0-2.3,0-3.5c-5.2-0.3-11.2-1-16.9-3.3
		c-9.4-3.9-14.9-10.5-16.2-19.6c-0.5-3.2-0.7-6.5-0.9-9.6c-0.1-1.4-0.2-2.7-0.3-4.1c-0.1-1-0.1-1.9-0.2-2.9c-0.1-2-0.2-3.9-0.5-5.7
		c-0.3-1.7-0.7-2.4-3-2.6l-2.6-0.3v-7.9h5.6l0.3,0.1c0.2,0,0.3,0.1,0.5,0.1c0.2,0,0.4,0.1,0.5,0.1c8.1,0.7,13.6,4.9,16.1,12.2
		c0.9,2.5,1.5,5.3,1.9,8.5c0.3,2.3,0.5,4.6,0.6,6.8c0.1,1.7,0.2,3.4,0.4,5.1c0.2,2.2,0.6,4.5,1.8,6.4c2.3,3.7,7.9,6.5,12.9,6.6
		c0-1.5,0-3,0-4.6c0-4.5,0-9.2,0-13.8c0-4.3-0.1-8.5-0.2-12.6c-0.1-3.4-1.2-4.6-4.6-5.2c-1.2-0.2-2.4-0.3-3.7-0.5
		c-0.6-0.1-1.3-0.1-1.9-0.2l-2.5-0.3v-7.6h43.9v8h-2.9c-0.2,0-0.4,0-0.6,0c-0.2,0-0.3,0-0.5,0c-0.1,0-0.3,0-0.4,0
		c-2.3,0.1-4.3,0.3-6,1.2c-1.7,0.8-2,1.8-2.1,2.8c0,0.5-0.1,0.9-0.1,1.4c-0.1,1.7-0.3,3.3-0.3,5c0,7,0,14.2,0,21.1l0,5.1
		c1.5-0.1,2.8-0.3,4.1-0.6c5.9-1.4,9.2-4.6,10.1-10c0.6-3.3,0.9-6.6,1.2-10.6c0.3-3.6,0.6-7.4,1.9-11.2c2.2-6.9,6.9-11.2,13.8-12.6
		c0.7-0.2,1.5-0.3,2.3-0.4l1.2-0.2h6V764.1z"/>
</g>
<g>
	<path d="M-159.2,981l-107.4-169.6c-4.5-7-6.8-15.1-6.8-23.5v-87.1h-10.3h-3.9h-26.8v87.1c0,8.3-2.4,16.4-6.8,23.5L-428.7,981
		c-4.1,6.4-4.3,14.2-0.6,20.8c3.7,6.6,10.4,10.6,17.9,10.6h142.6h4.5h87.8c7.6,0,14.3-4,17.9-10.6
		C-154.9,995.2-155.2,987.4-159.2,981z M-255.6,940.7c-8.5,12.1-21.6,19.1-35.2,20.3v11.7c4.2,1.8,7.2,5.9,7.2,10.8
		c0,6.5-5.2,11.7-11.7,11.7c-6.5,0-11.7-5.2-11.7-11.7c0-4.9,3-9.1,7.2-10.8V961c-8.2-0.8-16.4-3.6-23.6-8.7
		c-21.9-15.5-27.1-45.9-11.6-67.8c8.5-12.1,21.6-19,35.2-20.3v-16.9c-5.1-2.2-7.8-7.8-6.2-13.2c1.7-5.8,7.9-9.1,13.7-7.3
		c5.8,1.7,9.1,7.9,7.3,13.7c-0.9,3.1-3.1,5.5-5.8,6.7v17c8.2,0.8,16.4,3.6,23.6,8.7C-245.3,888.4-240.1,918.7-255.6,940.7z"/>
	<path d="M-288.9,839.2c1.1-3.7-1-7.5-4.7-8.7c-3.7-1.1-7.5,1-8.7,4.7c-1.1,3.7,1,7.5,4.7,8.7C-293.9,844.9-290,842.9-288.9,839.2z"
		/>
	<path d="M-273,881c-17.4-12.3-41.5-8.2-53.8,9.2c-12.3,17.4-8.2,41.5,9.2,53.8c17.4,12.3,41.5,8.2,53.8-9.2
		C-251.5,917.5-255.6,893.4-273,881z M-294.9,943.2c-6.2,0-12.5-1.8-18-5.7c-14-9.9-17.4-29.4-7.4-43.4c6.1-8.6,15.7-13.1,25.4-13.1
		V943.2z M-272.9,921l-0.3-2.3h-0.1c-1,1.4-3,2.7-5.6,2.7c-3.7,0-5.6-2.6-5.6-5.3c0-4.4,4-6.9,11.1-6.8v-0.4c0-1.5-0.4-4.3-4.2-4.3
		c-1.7,0-3.5,0.5-4.8,1.4l-0.8-2.2c1.5-1,3.7-1.6,6-1.6c5.6,0,7,3.8,7,7.5v6.9c0,1.6,0.1,3.2,0.3,4.4H-272.9z"/>
	<path d="M-281.2,915.7c0,2.2,1.4,3.2,3.2,3.2c2.4,0,3.9-1.5,4.4-3.1c0.1-0.3,0.2-0.7,0.2-1.1v-3.2
		C-277,911.5-281.2,912.1-281.2,915.7z"/>
	<polygon points="-302.2,903.6 -302.2,902.2 -316.6,902.2 -316.6,906.3 -309.7,906.3 -309.7,906.4 -317.5,918.8 -317.5,922.4 
		-302.1,922.4 -302.1,918.2 -314.4,918.2 -312.1,918.1 	"/>
</g>
<g>
	<g>
		<path class="st0" d="M-295.3,995.1c6.5,0,11.7-5.2,11.7-11.7c0-4.9-3-9.1-7.2-10.8v-18h-9v18c-4.2,1.8-7.2,5.9-7.2,10.8
			C-307.1,989.8-301.8,995.1-295.3,995.1z"/>
		<path d="M-91,833.7c-3.9-15.1-13.9-24.8-27-18.8c-18.7,8.5-33.7,61.9-69.8,103.4l36.5,57.6c5.8,9.2,6.2,20.4,1.1,30
			c-5.3,9.8-15.7,15.7-26.8,15.7h-87.3h-4.5h-142.1c-11.1,0-21.5-5.9-26.8-15.7c-5.1-9.6-4.7-20.8,1.1-30l28.5-45.1
			c-40.5-32.9-58.3-74.3-81.4-68.1c-8.7,2.3-14.4,10.5-14,19.5c5.3,109.3,95.6,196.4,206.3,196.4C-140.7,1078.6-60.1,920.9-91,833.7
			z"/>
	</g>
</g>
<polygon points="-273.4,911.6 -277,913.2 -277,908.4 -273.5,909.3 "/>
</svg>
