<svg id="Layer_1" data-name="Layer 1" xmlns="http://www.w3.org/2000/svg" viewBox="0 0 433.61 107.39"><defs><style>.cls-1{fill:#fff;}.cls-2,.cls-7{fill:#609fbf;}.cls-3,.cls-5,.cls-6{fill:#3a82a5;}.cls-4{fill:#095b81;}.cls-5{opacity:0.72;}.cls-6,.cls-7{opacity:0.45;}</style></defs><title>vector</title><path class="cls-1" d="M405.51,275.58c0,3-.07,5.94,0,8.91.19,6.72.57,13.44.65,20.17.11,9.43,0,18.87.06,28.31,0,1.7-.53,2.29-2.2,2.21-2.2-.1-4.41-.06-6.62,0-1.55,0-2.17-.6-2.16-2.19.06-6,0-11.89,0-17.84V256.67c0-3.05,0-3.08,3.07-3.08s6,0,9,0a2.12,2.12,0,0,1,2.34,1.79c3.34,10.58,6.76,21.15,10.15,31.72q4.76,14.79,9.51,29.59c.16.5.42,1,.8,1.83,1.37-4.2,2.62-8,3.84-11.79,1.72-5.4,3.41-10.81,5.14-16.21,2.24-7,4.51-14,6.75-21.05,1.51-4.7,3-9.41,4.49-14.12a2.25,2.25,0,0,1,2.42-1.77c3.37.07,6.74.06,10.11,0,1.39,0,1.76.58,1.76,1.89q0,38.88,0,77.77c0,1.45-.49,2-1.9,1.94-2.33-.06-4.66,0-7,0-1.43,0-2.12-.52-2.11-2.05,0-11.28-.08-22.55,0-33.83.09-7.4.51-14.79.77-22.19a1.71,1.71,0,0,0-.39-1.21l-6.36,18.79q-3.8,11.25-7.59,22.5c-1.74,5.2-3.53,10.39-5.16,15.62-.55,1.75-1.43,2.62-3.28,2.37a5.93,5.93,0,0,0-.73,0c-6.51-.07-4.65.73-6.76-5.05s-3.91-11.77-5.88-17.65q-4.81-14.37-9.69-28.73c-.93-2.75-1.9-5.48-2.85-8.22Z" transform="translate(-179.73 -252.47)"/><path class="cls-1" d="M310.77,288.15v-32c0-2.51.07-2.57,2.59-2.58,2.15,0,4.3,0,6.44,0,1.4,0,2,.59,2,2,0,2.46,0,4.91,0,7.36v69.14c0,3.05,0,3.09-3.06,3.1h-5.33c-2.54,0-2.61-.07-2.61-2.56v-34.7h-31.9v2c0,11-.05,21.95,0,32.92,0,1.86-.55,2.52-2.39,2.41-2-.12-4.05,0-6.07,0-2.39,0-2.57-.2-2.57-2.67q0-31.8,0-63.62c0-4.29,0-8.58,0-12.87,0-2.14.26-2.38,2.47-2.4s4.3.07,6.44,0c1.6-.08,2.12.5,2.11,2.11-.05,10.42,0,20.84,0,31.26v1.21Z" transform="translate(-179.73 -252.47)"/><path class="cls-1" d="M549.39,313.94c-8.58,0-17.09,0-25.6.06a2,2,0,0,0-1.43,1.15c-1.9,6.05-3.68,12.14-5.6,18.18-.23.71-1.08,1.67-1.7,1.71-2.81.19-5.63.1-8.45.07a5.54,5.54,0,0,1-1.28-.43c1-3.11,1.95-6.16,2.93-9.21q3.33-10.34,6.7-20.68,3.76-11.62,7.54-23.27c2.18-6.78,4.32-13.58,6.5-20.36.67-2.08,1.33-4.17,2.16-6.19a2.34,2.34,0,0,1,1.62-1.3,40.4,40.4,0,0,1,6.6,0,2.75,2.75,0,0,1,1.8,1.62c3,8.91,5.81,17.85,8.7,26.78q5.08,15.74,10.21,31.47,3.21,9.91,6.4,19.84c.39,1.23-.09,1.76-1.28,1.77-2.63,0-5.27,0-7.9,0-1.49,0-1.82-1.12-2.13-2.12-1.7-5.6-3.33-11.22-5-16.83C550,315.46,549.67,314.73,549.39,313.94ZM536.3,270l-.5,0c-3.42,11.41-6.84,22.82-10.29,34.35h21.13C543.16,292.85,539.73,281.43,536.3,270Z" transform="translate(-179.73 -252.47)"/><path class="cls-1" d="M349.62,263.19v25h4.64c7.17,0,14.34,0,21.5,0,2.38,0,2.6.24,2.63,2.65,0,1.59-.05,3.18,0,4.77s-.52,2.14-2.14,2.13c-8.52-.07-17,0-25.55,0h-1.06v27.8h30.7c2.36,0,2.48.13,2.48,2.5,0,1.77-.06,3.55,0,5.33.06,1.31-.54,1.77-1.73,1.75-.8,0-1.59,0-2.39,0H341.62c-3,0-3-.08-3.05-2.94q0-37.86,0-75.73c0-2.77.12-2.89,2.91-2.89h38.23c2.67,0,2.8.14,2.81,2.8,0,1.41,0,2.82,0,4.23,0,2.26-.3,2.56-2.55,2.56-6.43,0-12.86,0-19.3,0Z" transform="translate(-179.73 -252.47)"/><path class="cls-1" d="M212.73,292.47c0,6.26-.17,10.62.05,15a25.68,25.68,0,0,0,4,13.36c3.87,5.74,8.66,6.68,15.48,5.78,8.09-1.05,9.74-6.23,10.95-11.7a40.59,40.59,0,0,0,.69-4.53,1.62,1.62,0,0,1,1.91-1.68q3.58.07,7.17,0c1.43,0,2.11.66,1.91,2-.72,5-1.58,9.9-4.19,14.31a22.13,22.13,0,0,1-15,10.56,28,28,0,0,1-16.58-1c-7.91-3.15-12.56-9.27-15.19-17.1a43.59,43.59,0,0,1-2.25-14.79c.09-6.13-.07-12.26,0-18.39.16-8.12,2.12-15.73,7.22-22.26a23.84,23.84,0,0,1,15.79-9.11c6.77-1,13.19-.22,19,3.46,5.28,3.33,8.25,8.39,9.75,14.33.59,2.36.93,4.79,1.36,7.18s-.06,2.91-2.37,2.93c-2.14,0-4.29-.05-6.43,0-1.47.05-2-.53-2.19-2a60,60,0,0,0-1.72-8.41c-1.56-5.35-5.49-7.88-10.85-8.38-8.62-.81-14.89,4-17.26,12.3C212.13,281,213,287.69,212.73,292.47Z" transform="translate(-179.73 -252.47)"/><path class="cls-1" d="M577.84,294.31c0-12.81,0-25.62,0-38.43,0-1.73.45-2.43,2.26-2.32,2.26.13,4.53,0,6.8,0,1.27,0,2,.52,1.91,1.86,0,.43,0,.86,0,1.29v75.2c0,3.19,0,3.21-3.14,3.22h-5.33c-2.47,0-2.47,0-2.47-2.41Q577.83,313.52,577.84,294.31Z" transform="translate(-179.73 -252.47)"/><path class="cls-1" d="M487.58,323.37c4.6-.36,6.67,3.45,6.75,6.34.1,3.57-3.17,6.67-6.89,6.66a6.79,6.79,0,0,1-6.72-6.61C480.77,326.6,483,323,487.58,323.37Z" transform="translate(-179.73 -252.47)"/><rect class="cls-2" y="92.49" width="54.2" height="14.9"/><rect class="cls-3" x="54.2" y="92.49" width="54.2" height="14.9"/><rect class="cls-4" x="108.4" y="92.49" width="54.2" height="14.9"/><rect class="cls-3" x="162.6" y="92.49" width="54.2" height="14.9"/><rect class="cls-3" x="216.81" y="92.49" width="54.2" height="14.9"/><rect class="cls-5" x="271.01" y="92.49" width="54.2" height="14.9"/><rect class="cls-6" x="325.21" y="92.49" width="54.2" height="14.9"/><rect class="cls-7" x="379.41" y="92.49" width="54.2" height="14.9"/></svg>